<?xml version="1.0" encoding="UTF-8"?>
<svg width="600px" height="600px" viewBox="0 0 600 600" version="1.1" xmlns="http://www.w3.org/2000/svg" xmlns:xlink="http://www.w3.org/1999/xlink">
    <!-- Generator: Sketch 43.1 (39012) - http://www.bohemiancoding.com/sketch -->
    <title>Rayé Copy</title>
    <desc>Created with Sketch.</desc>
    <defs>
        <linearGradient x1="50%" y1="0%" x2="50%" y2="100%" id="linearGradient-1">
            <stop stop-color="#000000" offset="0%"></stop>
            <stop stop-color="#555E64" offset="100%"></stop>
        </linearGradient>
    </defs>
    <g id="Page-1" stroke="none" stroke-width="1" fill="none" fill-rule="evenodd">
        <g id="Rayé-Copy" fill="url(#linearGradient-1)">
            <path d="M0,0 L600,0 L600,600 L0,600 L0,0 Z M1,1 L1,300 L599,300 L599,1 L1,1 Z M366.269955,135.254225 C368.6964,130.871271 392.454281,127.259173 397.248286,130.001225 C399.29214,131.170259 410.912873,179.801977 415.874702,200.008954 C426.229423,242.178402 436.931658,277.828915 436.931658,277.828915 C436.931658,277.828915 462.36632,286.362931 464.535602,285.143509 C468.338262,283.005912 475.932369,246.519462 484.063493,206.124017 C489.615659,178.54084 496.363055,129.600143 497.347509,128.340621 C498.331963,127.0811 523.958398,123.77143 526.316433,128.340621 C528.674469,132.909813 494.255327,268.766174 494.255327,294.55756 C494.255327,320.348946 527.575739,469.717323 526.316433,470.95918 C525.057128,472.201037 495.805587,473.948801 494.255327,470.95918 C492.705067,467.969559 491.840292,449.690847 484.063493,397.100335 C476.286693,344.509823 466.116586,312.829494 466.116586,312.829494 C466.116586,312.829494 437.126862,309.675411 434.555181,312.829494 C431.982258,315.985101 420.465528,344.245627 410.65312,383.062775 C400.840713,421.879922 386.482783,470.445805 385.63397,470.95918 C384.785157,471.472556 361.324103,473.874218 359.072825,470.95918 C356.821547,468.044143 407.514391,306.768392 407.514391,285.143509 C407.514391,263.518625 363.843509,139.637178 366.269955,135.254225 Z M167,131.162001 C167,131.162001 201.67146,122.934007 204.391642,127.254017 C207.111824,131.574027 200.855418,198.398327 200.855418,198.398327 C200.855418,198.398327 240.023216,156.611197 282.178347,170.411601 C332.483506,186.880094 345.440081,277.412887 340.35066,323.415808 C335.26124,369.418729 315.114413,411.274845 291.423203,423.407371 C241.88543,448.776202 200.855418,407.7388 200.855418,407.7388 C200.855418,407.7388 203.72749,466.826522 200.855418,470.615454 C196.961182,475.752861 174.810592,473.866682 170.081323,471.699944 C170.081323,470.615454 171.190318,464.622415 173.321068,433.690919 C175.451817,402.759423 172.674492,335.925171 172.674492,335.925171 C172.674492,335.925171 188.293534,359.924242 211.538834,378.750808 C227.28403,391.502976 245.931224,403.397447 267.8881,398.027741 C278.188031,395.508822 292.719811,379.249925 300.709873,357.369824 C308.699934,335.489723 309.04659,306.627611 309.04659,294.273368 C309.04659,274.91732 306.618843,249.988584 297.309576,231.076149 C292.169686,220.634099 284.932011,212.026079 274.846926,207.202654 C261.006573,200.583185 241.426461,208.462059 223.104556,220.099757 C196.570042,236.953936 172.674492,261.69187 172.674492,261.69187 C172.674492,261.69187 175.61829,204.449818 172.674492,168.408736 C171.614218,155.427742 167,131.162001 167,131.162001 Z M73,132.900554 C73,132.900554 106.130057,126.558842 108.196702,128 C109.840134,129.146033 108.894854,150.486519 110.716032,231.716011 C111.626741,272.336138 109.449688,332.18747 110.716032,381.47014 C111.98204,430.739751 117.420282,467.645951 114.736105,470.010342 C112.439219,472.033584 82.8392915,474.12913 78.6391497,470.010342 C76.8735999,468.400574 78.6391497,307.985377 78.6391497,307.985377 L78.6391497,281.21043 L73,132.900554 Z" id="Combined-Shape"></path>
        </g>
    </g>
</svg>